#!OML:ASF I:\Actors\actors\Patient Classification 1\Patient 1\Session 1\Subject1.ASF
:FULLY-SPECIFIED
:DEGREES
597
root 0.498147 17.5371 8.26845 3.35733 1.13407 -9.04629
lowerback -0.232747 0.398965 8.78719
upperback -7.00203 0.941718 1.21672
thorax -7.14769 -0.0247616 -3.68405
lowerneck -13.8016 -4.60528 -0.303652
upperneck 30.8099 -8.24799 4.65009
head 12.7785 -3.10505 0.597401
rclavicle 6.95746e-016 5.76476e-014
rhumerus 50.0615 57.4646 -55.9386
rradius 146.408
rwrist -8.85438
rhand -4.68966 -254.206
rfingers 7.12502
rthumb 21.0916 494.667
lclavicle 6.95746e-016 5.76476e-014
lhumerus 44.4027 -63.9486 62.7477
lradius 143.359
lwrist 16.9348
lhand -61.2643 -14.1172
lfingers 7.12502
lthumb -33.3546 12.8075
rfemur -2.28448 19.8398 28.7455
rtibia 9.36663
rfoot -14.3939 -19.9474
rtoes 2.36832
lfemur 2.89782 -28.8353 -7.69297
ltibia 0.934836
lfoot -9.89008 33.208
ltoes -10.6384
598
root 0.498884 17.5351 8.28735 3.22587 1.30353 -9.07747
lowerback -0.269119 -0.963416 8.28163
upperback -7.31713 -0.792491 2.7894
thorax -7.65563 -0.81672 -1.62831
lowerneck -12.7912 -3.30156 -2.8946
upperneck 30.9989 -5.64106 4.64037
head 12.6257 -2.27529 1.45368
rclavicle -1.08089e-014 -4.57205e-015
rhumerus 54.4132 61.117 -52.4638
rradius 146.868
rwrist -8.06425
rhand -3.50302 -253.75
rfingers 7.12502
rthumb 22.2311 494.992
lclavicle -1.08089e-014 -4.57205e-015
lhumerus 38.7144 -61.0029 67.3065
lradius 143.171
lwrist 15.4909
lhand -61.2845 -13.9625
lfingers 7.12502
lthumb -33.3738 12.9581
rfemur -1.98716 19.8241 28.866
rtibia 9.24488
rfoot -14.4513 -20.0876
rtoes 2.41801
lfemur 3.05615 -28.7678 -7.72244
ltibia 0.925141
lfoot -9.77433 32.9932
ltoes -11.0468
599
root 0.500295 17.5328 8.30553 3.1074 1.41956 -9.07094
lowerback -0.358171 -1.48828 8.01127
upperback -7.40424 -1.47219 3.41927
thorax -7.73361 -1.11409 -0.766667
lowerneck -12.7315 -2.88241 -3.93182
upperneck 31.2893 -4.79573 4.72008
head 12.7209 -2.01221 1.79449
rclavicle -2.83765e-014 6.54002e-014
rhumerus 56.6211 62.5007 -50.5415
rradius 146.622
rwrist -8.41106
rhand -4.39744 -254.388
rfingers 7.12502
rthumb 21.3723 494.453
lclavicle -2.83765e-014 6.54002e-014
lhumerus 36.8957 -59.6913 68.7149
lradius 143.132
lwrist 15.1618
lhand -61.1137 -14.6502
lfingers 7.12502
lthumb -33.2114 12.3051
rfemur -1.76063 19.7672 28.9257
rtibia 9.21859
rfoot -14.5375 -20.144
rtoes 2.4395
lfemur 3.20217 -28.6696 -7.79721
ltibia 0.942146
lfoot -9.8477 32.7868
ltoes -10.9445
600
root 0.500974 17.5308 8.32113 3.02674 1.56661 -9.05283
lowerback -0.447385 -1.54293 7.93726
upperback -7.42445 -1.55076 3.51126
thorax -7.7036 -1.144 -0.625741
lowerneck -12.8679 -2.86505 -4.06679
upperneck 31.4643 -4.73183 4.6984
head 12.8225 -1.99917 1.82017
rclavicle -9.93923e-017 -1.8487e-014
rhumerus 56.9069 62.6122 -50.1911
rradius 145.988
rwrist -9.39803
rhand -6.27852 -255.457
rfingers 7.12502
rthumb 19.5646 493.578
lclavicle -9.93923e-017 -1.8487e-014
lhumerus 36.8974 -59.5613 68.7993
lradius 143.148
lwrist 15.3046
lhand -61.0473 -15.2682
lfingers 7.12502
lthumb -33.1483 11.7006
rfemur -1.62706 19.6617 28.9494
rtibia 9.26191
rfoot -14.6693 -20.1866
rtoes 2.57009
lfemur 3.22155 -28.5249 -7.81772
ltibia 1.02827
lfoot -10.0127 32.5039
ltoes -10.6444
601
root 0.500749 17.5284 8.33589 2.9582 1.68959 -9.04422
lowerback -0.54528 -1.61402 7.85809
upperback -7.43157 -1.65093 3.64529
thorax -7.65384 -1.18193 -0.437257
lowerneck -12.9101 -2.77658 -4.1837
upperneck 31.5033 -4.54387 4.62176
head 12.8378 -1.93851 1.83923
rclavicle -7.85199e-015 -2.14687e-014
rhumerus 57.4971 62.7813 -49.5772
rradius 146.026
rwrist -9.61292
rhand -7.04912 -254.964
rfingers 7.12502
rthumb 18.8236 494.146
lclavicle -7.85199e-015 -2.14687e-014
lhumerus 36.7748 -59.3709 69.0554
lradius 143.132
lwrist 15.2008
lhand -61.0649 -15.0076
lfingers 7.12502
lthumb -33.1651 11.9577
rfemur -1.51166 19.5984 28.9858
rtibia 9.31135
rfoot -14.8026 -20.2304
rtoes 2.66978
lfemur 3.25801 -28.4183 -7.82789
ltibia 1.08056
lfoot -10.1346 32.2971
ltoes -10.5311
602
root 0.500732 17.5262 8.3504 2.88306 1.75749 -9.04644
lowerback -0.630351 -1.67273 7.81105
upperback -7.42817 -1.73353 3.76657
thorax -7.60028 -1.21358 -0.281341
lowerneck -12.7559 -2.62472 -4.25432
upperneck 31.3236 -4.30251 4.64382
head 12.7179 -1.83961 1.89518
rclavicle -5.1684e-015 -1.19271e-015
rhumerus 58.122 62.948 -48.9853
rradius 146.425
rwrist -9.40948
rhand -7.59043 -253.313
rfingers 7.12502
rthumb 18.3029 495.846
lclavicle -5.1684e-015 -1.19271e-015
lhumerus 36.4289 -59.1955 69.3853
lradius 143.154
lwrist 14.943
lhand -61.1261 -15.1654
lfingers 7.12502
lthumb -33.2233 11.7874
rfemur -1.38811 19.5957 29.0425
rtibia 9.34795
rfoot -14.8929 -20.269
rtoes 2.75541
lfemur 3.35623 -28.3842 -7.86066
ltibia 1.10137
lfoot -10.1858 32.1977
ltoes -10.6253
603
root 0.502844 17.5254 8.3632 2.82596 1.81422 -9.04366
lowerback -0.706945 -1.70225 7.80619
upperback -7.42381 -1.77729 3.84319
thorax -7.55123 -1.23062 -0.198152
lowerneck -12.6242 -2.5069 -4.46673
upperneck 31.1339 -4.13912 4.86962
head 12.6122 -1.76513 2.04209
rclavicle 1.93815e-014 -2.62396e-014
rhumerus 58.2648 62.9434 -48.892
rradius 146.479
rwrist -9.3464
rhand -6.44901 -253.795
rfingers 7.12502
rthumb 19.4007 495.257
lclavicle 1.93815e-014 -2.62396e-014
lhumerus 36.2104 -59.1357 69.5242
lradius 143.217
lwrist 14.6993
lhand -61.1767 -15.5593
lfingers 7.12502
lthumb -33.2714 11.3833
rfemur -1.30687 19.5777 29.0734
rtibia 9.4074
rfoot -14.9692 -20.3044
rtoes 2.82915
lfemur 3.441 -28.3788 -7.91546
ltibia 1.12693
lfoot -10.169 32.1234
ltoes -10.8744
604
root 0.505224 17.5247 8.37482 2.78306 1.86586 -9.00955
lowerback -0.661543 -1.72272 7.7748
upperback -7.4847 -1.7933 3.88903
thorax -7.64259 -1.23786 -0.126999
lowerneck -12.6593 -2.48815 -4.65171
upperneck 31.1424 -4.11286 5.02901
head 12.6299 -1.75407 2.13992
rclavicle -1.26228e-014 -1.98785e-015
rhumerus 57.8897 62.8709 -49.3323
rradius 147.046
rwrist -8.10008
rhand -3.53351 -253.034
rfingers 7.12502
rthumb 22.2019 495.711
lclavicle -1.26228e-014 -1.98785e-015
lhumerus 36.2154 -59.1222 69.611
lradius 143.249
lwrist 14.6395
lhand -61.1001 -15.2097
lfingers 7.12502
lthumb -33.1985 11.7484
rfemur -1.23187 19.5534 29.0652
rtibia 9.45303
rfoot -15.0144 -20.3638
rtoes 2.68652
lfemur 3.52891 -28.3698 -8.01191
ltibia 1.12967
lfoot -10.128 32.0591
ltoes -11.0557
605
root 0.50508 17.525 8.38605 2.74692 1.88708 -8.95243
lowerback -0.468717 -1.73556 7.67167
upperback -7.62688 -1.78035 3.92278
thorax -7.9044 -1.23173 -0.0215336
lowerneck -12.6087 -2.4564 -4.51841
upperneck 31.1953 -4.07959 4.94458
head 12.6335 -1.73483 2.09018
rclavicle -5.36719e-015 0
rhumerus 57.6287 62.9835 -49.4997
rradius 146.055
rwrist -10.082
rhand -6.62117 -254.933
rfingers 7.12502
rthumb 19.2351 494.136
lclavicle -5.36719e-015 0
lhumerus 36.1634 -59.1813 69.7709
lradius 143.237
lwrist 14.4733
lhand -61.1685 -14.6171
lfingers 7.12502
lthumb -33.2635 12.3271
rfemur -1.14335 19.5911 29.0434
rtibia 9.46653
rfoot -15.0604 -20.4425
rtoes 2.66059
lfemur 3.61638 -28.3168 -8.10973
ltibia 1.11475
lfoot -10.1482 31.9858
ltoes -10.9852
